<svg width="402" height="429" viewBox="0 0 402 429" fill="none" xmlns="http://www.w3.org/2000/svg">
<path d="M53.4156 16.9766C55.8865 16.9766 58.2562 17.9581 60.0035 19.7054C61.7507 21.4526 62.7323 23.8223 62.7323 26.2933C62.7323 29.4754 60.9973 32.08 59.1691 33.9485C58.2558 34.8719 57.2591 35.7091 56.1919 36.4495L55.751 36.7497L55.5439 36.8874L55.1537 37.1358L54.8058 37.348L54.3752 37.5985C54.0829 37.7654 53.7521 37.8531 53.4156 37.8531C53.079 37.8531 52.7483 37.7654 52.456 37.5985L52.0253 37.348L51.487 37.0168L51.2883 36.8874L50.8638 36.6048C49.7125 35.8258 48.6401 34.9361 47.662 33.9485C45.8339 32.0789 44.0989 29.4754 44.0989 26.2933C44.0989 23.8223 45.0805 21.4526 46.8277 19.7054C48.5749 17.9581 50.9446 16.9766 53.4156 16.9766ZM53.4156 23.1877C53.0077 23.1877 52.6039 23.268 52.2271 23.4241C51.8503 23.5802 51.508 23.8089 51.2196 24.0973C50.9312 24.3857 50.7025 24.728 50.5464 25.1048C50.3903 25.4816 50.31 25.8854 50.31 26.2933C50.31 26.7011 50.3903 27.1049 50.5464 27.4817C50.7025 27.8585 50.9312 28.2008 51.2196 28.4892C51.508 28.7776 51.8503 29.0064 52.2271 29.1624C52.6039 29.3185 53.0077 29.3988 53.4156 29.3988C54.2392 29.3988 55.0291 29.0716 55.6115 28.4892C56.1939 27.9068 56.5211 27.1169 56.5211 26.2933C56.5211 25.4696 56.1939 24.6797 55.6115 24.0973C55.0291 23.5149 54.2392 23.1877 53.4156 23.1877Z" fill="#036672"/>
<path d="M44.72 98.9634C47.191 98.9634 49.5607 99.945 51.3079 101.692C53.0551 103.439 54.0367 105.809 54.0367 108.28C54.0367 111.462 52.3017 114.067 50.4736 115.935C49.5602 116.859 48.5636 117.696 47.4964 118.436L47.0554 118.737L46.8484 118.874L46.4581 119.123L46.1103 119.335L45.6796 119.585C45.3873 119.752 45.0566 119.84 44.72 119.84C44.3834 119.84 44.0527 119.752 43.7604 119.585L43.3298 119.335L42.7915 119.004L42.5927 118.874L42.1683 118.592C41.017 117.813 39.9446 116.923 38.9664 115.935C37.1383 114.066 35.4033 111.462 35.4033 108.28C35.4033 105.809 36.3849 103.439 38.1321 101.692C39.8793 99.945 42.2491 98.9634 44.72 98.9634ZM44.72 105.175C44.3122 105.175 43.9083 105.255 43.5316 105.411C43.1548 105.567 42.8124 105.796 42.524 106.084C42.2357 106.372 42.0069 106.715 41.8508 107.092C41.6948 107.468 41.6144 107.872 41.6144 108.28C41.6144 108.688 41.6948 109.092 41.8508 109.469C42.0069 109.845 42.2357 110.188 42.524 110.476C42.8124 110.764 43.1548 110.993 43.5316 111.149C43.9083 111.305 44.3122 111.386 44.72 111.386C45.5437 111.386 46.3336 111.058 46.916 110.476C47.4984 109.894 47.8256 109.104 47.8256 108.28C47.8256 107.456 47.4984 106.667 46.916 106.084C46.3336 105.502 45.5437 105.175 44.72 105.175Z" fill="#036672"/>
<path d="M12.4222 127.535C14.8931 127.535 17.2628 128.516 19.0101 130.263C20.7573 132.011 21.7389 134.38 21.7389 136.851C21.7389 140.034 20.0039 142.638 18.1757 144.507C17.2624 145.43 16.2657 146.267 15.1985 147.008L14.7575 147.308L14.5505 147.445L14.1602 147.694L13.8124 147.906L13.3818 148.157C13.0895 148.323 12.7587 148.411 12.4222 148.411C12.0856 148.411 11.7548 148.323 11.4625 148.157L11.0319 147.906L10.4936 147.575L10.2949 147.445L9.87042 147.163C8.71912 146.384 7.64674 145.494 6.66859 144.507C4.84044 142.637 3.10547 140.034 3.10547 136.851C3.10547 134.38 4.08705 132.011 5.83426 130.263C7.58148 128.516 9.95122 127.535 12.4222 127.535ZM12.4222 133.746C12.0143 133.746 11.6105 133.826 11.2337 133.982C10.8569 134.138 10.5146 134.367 10.2262 134.655C9.93782 134.944 9.70906 135.286 9.55299 135.663C9.39693 136.04 9.3166 136.444 9.3166 136.851C9.3166 137.259 9.39693 137.663 9.55299 138.04C9.70906 138.417 9.93782 138.759 10.2262 139.047C10.5146 139.336 10.8569 139.564 11.2337 139.721C11.6105 139.877 12.0143 139.957 12.4222 139.957C13.2458 139.957 14.0357 139.63 14.6181 139.047C15.2005 138.465 15.5277 137.675 15.5277 136.851C15.5277 136.028 15.2005 135.238 14.6181 134.655C14.0357 134.073 13.2458 133.746 12.4222 133.746Z" fill="#036672"/>
<path d="M22.3599 148.653C24.8308 148.653 27.2006 149.634 28.9478 151.382C30.695 153.129 31.6766 155.499 31.6766 157.97C31.6766 161.152 29.9416 163.756 28.1135 165.625C27.2001 166.548 26.2035 167.385 25.1363 168.126L24.6953 168.426L24.4883 168.564L24.098 168.812L23.7502 169.024L23.3195 169.275C23.0272 169.442 22.6965 169.529 22.3599 169.529C22.0233 169.529 21.6926 169.442 21.4003 169.275L20.9696 169.024L20.4314 168.693L20.2326 168.564L19.8082 168.281C18.6569 167.502 17.5845 166.612 16.6063 165.625C14.7782 163.755 13.0432 161.152 13.0432 157.97C13.0432 155.499 14.0248 153.129 15.772 151.382C17.5192 149.634 19.889 148.653 22.3599 148.653ZM22.3599 154.864C21.9521 154.864 21.5482 154.944 21.1715 155.1C20.7947 155.256 20.4523 155.485 20.1639 155.774C19.8756 156.062 19.6468 156.404 19.4907 156.781C19.3347 157.158 19.2543 157.562 19.2543 157.97C19.2543 158.377 19.3347 158.781 19.4907 159.158C19.6468 159.535 19.8756 159.877 20.1639 160.165C20.4523 160.454 20.7947 160.683 21.1715 160.839C21.5482 160.995 21.9521 161.075 22.3599 161.075C23.1836 161.075 23.9735 160.748 24.5559 160.165C25.1383 159.583 25.4655 158.793 25.4655 157.97C25.4655 157.146 25.1383 156.356 24.5559 155.774C23.9735 155.191 23.1836 154.864 22.3599 154.864Z" fill="#036672"/>
<path d="M37.2666 171.013C39.7376 171.013 42.1073 171.994 43.8545 173.741C45.6018 175.489 46.5833 177.858 46.5833 180.329C46.5833 183.512 44.8484 186.116 43.0202 187.985C42.1068 188.908 41.1102 189.745 40.043 190.486L39.602 190.786L39.395 190.924L39.0047 191.172L38.6569 191.384L38.2263 191.635C37.934 191.802 37.6032 191.889 37.2666 191.889C36.9301 191.889 36.5993 191.802 36.307 191.635L35.8764 191.384L35.3381 191.053L35.1393 190.924L34.7149 190.641C33.5636 189.862 32.4912 188.972 31.5131 187.985C29.6849 186.115 27.95 183.512 27.95 180.329C27.95 177.858 28.9315 175.489 30.6787 173.741C32.426 171.994 34.7957 171.013 37.2666 171.013ZM37.2666 177.224C36.8588 177.224 36.455 177.304 36.0782 177.46C35.7014 177.616 35.3591 177.845 35.0707 178.133C34.7823 178.422 34.5535 178.764 34.3975 179.141C34.2414 179.518 34.1611 179.922 34.1611 180.329C34.1611 180.737 34.2414 181.141 34.3975 181.518C34.5535 181.895 34.7823 182.237 35.0707 182.525C35.3591 182.814 35.7014 183.042 36.0782 183.199C36.455 183.355 36.8588 183.435 37.2666 183.435C38.0903 183.435 38.8802 183.108 39.4626 182.525C40.045 181.943 40.3722 181.153 40.3722 180.329C40.3722 179.506 40.045 178.716 39.4626 178.133C38.8802 177.551 38.0903 177.224 37.2666 177.224Z" fill="#036672"/>
<path d="M65.8379 182.193C68.3089 182.193 70.6786 183.174 72.4258 184.922C74.173 186.669 75.1546 189.039 75.1546 191.51C75.1546 194.692 73.4197 197.296 71.5915 199.165C70.6781 200.088 69.6815 200.925 68.6143 201.666L68.1733 201.966L67.9663 202.104L67.576 202.352L67.2282 202.564L66.7976 202.815C66.5053 202.982 66.1745 203.069 65.8379 203.069C65.5014 203.069 65.1706 202.982 64.8783 202.815L64.4477 202.564L63.9094 202.233L63.7106 202.104L63.2862 201.821C62.1349 201.042 61.0625 200.152 60.0844 199.165C58.2562 197.295 56.5212 194.692 56.5212 191.51C56.5212 189.039 57.5028 186.669 59.25 184.922C60.9973 183.174 63.367 182.193 65.8379 182.193ZM65.8379 188.404C65.4301 188.404 65.0263 188.484 64.6495 188.64C64.2727 188.796 63.9303 189.025 63.642 189.314C63.3536 189.602 63.1248 189.944 62.9688 190.321C62.8127 190.698 62.7324 191.102 62.7324 191.51C62.7324 191.917 62.8127 192.321 62.9688 192.698C63.1248 193.075 63.3536 193.417 63.642 193.706C63.9303 193.994 64.2727 194.223 64.6495 194.379C65.0263 194.535 65.4301 194.615 65.8379 194.615C66.6616 194.615 67.4515 194.288 68.0339 193.706C68.6163 193.123 68.9435 192.333 68.9435 191.51C68.9435 190.686 68.6163 189.896 68.0339 189.314C67.4515 188.731 66.6616 188.404 65.8379 188.404Z" fill="#036672"/>
<path d="M93.1668 173.497C95.6377 173.497 98.0075 174.479 99.7547 176.226C101.502 177.973 102.483 180.343 102.483 182.814C102.483 185.996 100.749 188.6 98.9204 190.469C98.007 191.392 97.0104 192.23 95.9432 192.97L95.5022 193.27L95.2951 193.408L94.9049 193.656L94.557 193.869L94.1264 194.119C93.8341 194.286 93.5034 194.374 93.1668 194.374C92.8302 194.374 92.4995 194.286 92.2072 194.119L91.7765 193.869L91.2382 193.537L91.0395 193.408L90.6151 193.125C89.4637 192.346 88.3914 191.457 87.4132 190.469C85.5851 188.599 83.8501 185.996 83.8501 182.814C83.8501 180.343 84.8317 177.973 86.5789 176.226C88.3261 174.479 90.6959 173.497 93.1668 173.497ZM93.1668 179.708C92.759 179.708 92.3551 179.789 91.9783 179.945C91.6016 180.101 91.2592 180.329 90.9708 180.618C90.6824 180.906 90.4537 181.249 90.2976 181.625C90.1416 182.002 90.0612 182.406 90.0612 182.814C90.0612 183.222 90.1416 183.625 90.2976 184.002C90.4537 184.379 90.6824 184.721 90.9708 185.01C91.2592 185.298 91.6016 185.527 91.9783 185.683C92.3551 185.839 92.759 185.919 93.1668 185.919C93.9904 185.919 94.7804 185.592 95.3628 185.01C95.9452 184.427 96.2724 183.637 96.2724 182.814C96.2724 181.99 95.9452 181.2 95.3628 180.618C94.7804 180.035 93.9904 179.708 93.1668 179.708Z" fill="#036672"/>
<path d="M129.191 174.739C131.662 174.739 134.032 175.721 135.779 177.468C137.527 179.215 138.508 181.585 138.508 184.056C138.508 187.238 136.773 189.843 134.945 191.711C134.032 192.635 133.035 193.472 131.968 194.212L131.527 194.512L131.32 194.65L130.93 194.899L130.582 195.111L130.151 195.361C129.859 195.528 129.528 195.616 129.191 195.616C128.855 195.616 128.524 195.528 128.232 195.361L127.801 195.111L127.263 194.779L127.064 194.65L126.64 194.367C125.488 193.589 124.416 192.699 123.438 191.711C121.61 189.842 119.875 187.238 119.875 184.056C119.875 181.585 120.856 179.215 122.604 177.468C124.351 175.721 126.721 174.739 129.191 174.739ZM129.191 180.95C128.784 180.95 128.38 181.031 128.003 181.187C127.626 181.343 127.284 181.572 126.995 181.86C126.707 182.148 126.478 182.491 126.322 182.868C126.166 183.244 126.086 183.648 126.086 184.056C126.086 184.464 126.166 184.868 126.322 185.244C126.478 185.621 126.707 185.964 126.995 186.252C127.284 186.54 127.626 186.769 128.003 186.925C128.38 187.081 128.784 187.162 129.191 187.162C130.015 187.162 130.805 186.834 131.387 186.252C131.97 185.67 132.297 184.88 132.297 184.056C132.297 183.232 131.97 182.442 131.387 181.86C130.805 181.278 130.015 180.95 129.191 180.95Z" fill="#036672"/>
<path d="M95.6512 146.168C98.1221 146.168 100.492 147.15 102.239 148.897C103.986 150.644 104.968 153.014 104.968 155.485C104.968 158.667 103.233 161.271 101.405 163.14C100.491 164.063 99.4947 164.901 98.4275 165.641L97.9866 165.941L97.7795 166.079L97.3892 166.327L97.0414 166.539L96.6108 166.79C96.3185 166.957 95.9877 167.045 95.6512 167.045C95.3146 167.045 94.9838 166.957 94.6915 166.79L94.2609 166.539L93.7226 166.208L93.5239 166.079L93.0994 165.796C91.9481 165.017 90.8757 164.128 89.8976 163.14C88.0694 161.27 86.3345 158.667 86.3345 155.485C86.3345 153.014 87.316 150.644 89.0633 148.897C90.8105 147.15 93.1802 146.168 95.6512 146.168ZM95.6512 152.379C95.2433 152.379 94.8395 152.459 94.4627 152.615C94.0859 152.772 93.7436 153 93.4552 153.289C93.1668 153.577 92.9381 153.919 92.782 154.296C92.6259 154.673 92.5456 155.077 92.5456 155.485C92.5456 155.892 92.6259 156.296 92.782 156.673C92.9381 157.05 93.1668 157.392 93.4552 157.681C93.7436 157.969 94.0859 158.198 94.4627 158.354C94.8395 158.51 95.2433 158.59 95.6512 158.59C96.4748 158.59 97.2647 158.263 97.8471 157.681C98.4295 157.098 98.7567 156.308 98.7567 155.485C98.7567 154.661 98.4295 153.871 97.8471 153.289C97.2647 152.706 96.4748 152.379 95.6512 152.379Z" fill="#036672"/>
<path d="M139.129 147.41C141.6 147.41 143.97 148.392 145.717 150.139C147.464 151.886 148.446 154.256 148.446 156.727C148.446 159.909 146.711 162.514 144.883 164.382C143.969 165.306 142.973 166.143 141.906 166.883L141.465 167.183L141.258 167.321L140.867 167.569L140.519 167.782L140.089 168.032C139.797 168.199 139.466 168.287 139.129 168.287C138.793 168.287 138.462 168.199 138.17 168.032L137.739 167.782L137.201 167.45L137.002 167.321L136.577 167.038C135.426 166.259 134.354 165.37 133.376 164.382C131.547 162.513 129.812 159.909 129.812 156.727C129.812 154.256 130.794 151.886 132.541 150.139C134.289 148.392 136.658 147.41 139.129 147.41ZM139.129 153.621C138.721 153.621 138.318 153.702 137.941 153.858C137.564 154.014 137.222 154.243 136.933 154.531C136.645 154.819 136.416 155.162 136.26 155.538C136.104 155.915 136.024 156.319 136.024 156.727C136.024 157.135 136.104 157.539 136.26 157.915C136.416 158.292 136.645 158.634 136.933 158.923C137.222 159.211 137.564 159.44 137.941 159.596C138.318 159.752 138.721 159.832 139.129 159.832C139.953 159.832 140.743 159.505 141.325 158.923C141.908 158.34 142.235 157.55 142.235 156.727C142.235 155.903 141.908 155.113 141.325 154.531C140.743 153.948 139.953 153.621 139.129 153.621Z" fill="#036672"/>
<path d="M167.7 169.771C170.171 169.771 172.541 170.752 174.288 172.499C176.036 174.247 177.017 176.616 177.017 179.087C177.017 182.269 175.282 184.874 173.454 186.742C172.541 187.666 171.544 188.503 170.477 189.243L170.036 189.544L169.829 189.681L169.439 189.93L169.091 190.142L168.66 190.392C168.368 190.559 168.037 190.647 167.7 190.647C167.364 190.647 167.033 190.559 166.741 190.392L166.31 190.142L165.772 189.811L165.573 189.681L165.149 189.399C163.997 188.62 162.925 187.73 161.947 186.742C160.119 184.873 158.384 182.269 158.384 179.087C158.384 176.616 159.365 174.247 161.113 172.499C162.86 170.752 165.23 169.771 167.7 169.771ZM167.7 175.982C167.293 175.982 166.889 176.062 166.512 176.218C166.135 176.374 165.793 176.603 165.505 176.891C165.216 177.18 164.987 177.522 164.831 177.899C164.675 178.276 164.595 178.679 164.595 179.087C164.595 179.495 164.675 179.899 164.831 180.276C164.987 180.652 165.216 180.995 165.505 181.283C165.793 181.572 166.135 181.8 166.512 181.956C166.889 182.112 167.293 182.193 167.7 182.193C168.524 182.193 169.314 181.866 169.896 181.283C170.479 180.701 170.806 179.911 170.806 179.087C170.806 178.264 170.479 177.474 169.896 176.891C169.314 176.309 168.524 175.982 167.7 175.982Z" fill="#036672"/>
<path d="M168.943 219.459C171.414 219.459 173.783 220.441 175.531 222.188C177.278 223.935 178.259 226.305 178.259 228.776C178.259 231.958 176.524 234.563 174.696 236.431C173.783 237.355 172.786 238.192 171.719 238.932L171.278 239.233L171.071 239.37L170.681 239.619L170.333 239.831L169.902 240.081C169.61 240.248 169.279 240.336 168.943 240.336C168.606 240.336 168.275 240.248 167.983 240.081L167.552 239.831L167.014 239.5L166.815 239.37L166.391 239.088C165.24 238.309 164.167 237.419 163.189 236.431C161.361 234.562 159.626 231.958 159.626 228.776C159.626 226.305 160.608 223.935 162.355 222.188C164.102 220.441 166.472 219.459 168.943 219.459ZM168.943 225.671C168.535 225.671 168.131 225.751 167.754 225.907C167.377 226.063 167.035 226.292 166.747 226.58C166.458 226.869 166.23 227.211 166.074 227.588C165.917 227.965 165.837 228.368 165.837 228.776C165.837 229.184 165.917 229.588 166.074 229.965C166.23 230.341 166.458 230.684 166.747 230.972C167.035 231.261 167.377 231.489 167.754 231.645C168.131 231.801 168.535 231.882 168.943 231.882C169.766 231.882 170.556 231.555 171.139 230.972C171.721 230.39 172.048 229.6 172.048 228.776C172.048 227.953 171.721 227.163 171.139 226.58C170.556 225.998 169.766 225.671 168.943 225.671Z" fill="#036672"/>
<path d="M199.998 348.651C202.469 348.651 204.839 349.632 206.586 351.38C208.333 353.127 209.315 355.497 209.315 357.968C209.315 361.15 207.58 363.754 205.752 365.623C204.839 366.546 203.842 367.383 202.775 368.124L202.334 368.424L202.127 368.562L201.736 368.81L201.389 369.022L200.958 369.273C200.666 369.44 200.335 369.527 199.998 369.527C199.662 369.527 199.331 369.44 199.039 369.273L198.608 369.022L198.07 368.691L197.871 368.562L197.447 368.279C196.295 367.5 195.223 366.61 194.245 365.623C192.417 363.753 190.682 361.15 190.682 357.968C190.682 355.497 191.663 353.127 193.41 351.38C195.158 349.632 197.527 348.651 199.998 348.651ZM199.998 354.862C199.591 354.862 199.187 354.942 198.81 355.098C198.433 355.254 198.091 355.483 197.802 355.772C197.514 356.06 197.285 356.402 197.129 356.779C196.973 357.156 196.893 357.56 196.893 357.968C196.893 358.375 196.973 358.779 197.129 359.156C197.285 359.533 197.514 359.875 197.802 360.164C198.091 360.452 198.433 360.681 198.81 360.837C199.187 360.993 199.591 361.073 199.998 361.073C200.822 361.073 201.612 360.746 202.194 360.164C202.777 359.581 203.104 358.791 203.104 357.968C203.104 357.144 202.777 356.354 202.194 355.772C201.612 355.189 200.822 354.862 199.998 354.862Z" fill="#036672"/>
<path d="M252.172 405.793C254.643 405.793 257.012 406.775 258.76 408.522C260.507 410.269 261.488 412.639 261.488 415.11C261.488 418.292 259.753 420.897 257.925 422.765C257.012 423.689 256.015 424.526 254.948 425.266L254.507 425.567L254.3 425.704L253.91 425.953L253.562 426.165L253.131 426.415C252.839 426.582 252.508 426.67 252.172 426.67C251.835 426.67 251.504 426.582 251.212 426.415L250.781 426.165L250.243 425.834L250.044 425.704L249.62 425.422C248.469 424.643 247.396 423.753 246.418 422.765C244.59 420.896 242.855 418.292 242.855 415.11C242.855 412.639 243.837 410.269 245.584 408.522C247.331 406.775 249.701 405.793 252.172 405.793ZM252.172 412.005C251.764 412.005 251.36 412.085 250.983 412.241C250.606 412.397 250.264 412.626 249.976 412.914C249.687 413.203 249.459 413.545 249.303 413.922C249.146 414.298 249.066 414.702 249.066 415.11C249.066 415.518 249.146 415.922 249.303 416.299C249.459 416.675 249.687 417.018 249.976 417.306C250.264 417.594 250.606 417.823 250.983 417.979C251.36 418.135 251.764 418.216 252.172 418.216C252.995 418.216 253.785 417.889 254.368 417.306C254.95 416.724 255.277 415.934 255.277 415.11C255.277 414.287 254.95 413.497 254.368 412.914C253.785 412.332 252.995 412.005 252.172 412.005Z" fill="#036672"/>
<path d="M238.507 347.409C240.978 347.409 243.348 348.39 245.095 350.137C246.842 351.885 247.824 354.254 247.824 356.725C247.824 359.908 246.089 362.512 244.261 364.381C243.348 365.304 242.351 366.141 241.284 366.882L240.843 367.182L240.636 367.319L240.245 367.568L239.898 367.78L239.467 368.031C239.175 368.198 238.844 368.285 238.507 368.285C238.171 368.285 237.84 368.198 237.548 368.031L237.117 367.78L236.579 367.449L236.38 367.319L235.956 367.037C234.804 366.258 233.732 365.368 232.754 364.381C230.926 362.511 229.191 359.908 229.191 356.725C229.191 354.254 230.172 351.885 231.919 350.137C233.667 348.39 236.036 347.409 238.507 347.409ZM238.507 353.62C238.1 353.62 237.696 353.7 237.319 353.856C236.942 354.012 236.6 354.241 236.311 354.529C236.023 354.818 235.794 355.16 235.638 355.537C235.482 355.914 235.402 356.318 235.402 356.725C235.402 357.133 235.482 357.537 235.638 357.914C235.794 358.291 236.023 358.633 236.311 358.921C236.6 359.21 236.942 359.438 237.319 359.595C237.696 359.751 238.1 359.831 238.507 359.831C239.331 359.831 240.121 359.504 240.703 358.921C241.286 358.339 241.613 357.549 241.613 356.725C241.613 355.902 241.286 355.112 240.703 354.529C240.121 353.947 239.331 353.62 238.507 353.62Z" fill="#036672"/>
<path d="M273.29 331.26C275.761 331.26 278.13 332.241 279.877 333.989C281.625 335.736 282.606 338.106 282.606 340.576C282.606 343.759 280.871 346.363 279.043 348.232C278.13 349.155 277.133 349.992 276.066 350.733L275.625 351.033L275.418 351.171L275.028 351.419L274.68 351.631L274.249 351.882C273.957 352.049 273.626 352.136 273.29 352.136C272.953 352.136 272.622 352.049 272.33 351.882L271.899 351.631L271.361 351.3L271.162 351.171L270.738 350.888C269.587 350.109 268.514 349.219 267.536 348.232C265.708 346.362 263.973 343.759 263.973 340.576C263.973 338.106 264.954 335.736 266.702 333.989C268.449 332.241 270.819 331.26 273.29 331.26ZM273.29 337.471C272.882 337.471 272.478 337.551 272.101 337.707C271.724 337.863 271.382 338.092 271.094 338.38C270.805 338.669 270.576 339.011 270.42 339.388C270.264 339.765 270.184 340.169 270.184 340.576C270.184 340.984 270.264 341.388 270.42 341.765C270.576 342.142 270.805 342.484 271.094 342.772C271.382 343.061 271.724 343.29 272.101 343.446C272.478 343.602 272.882 343.682 273.29 343.682C274.113 343.682 274.903 343.355 275.486 342.772C276.068 342.19 276.395 341.4 276.395 340.576C276.395 339.753 276.068 338.963 275.486 338.38C274.903 337.798 274.113 337.471 273.29 337.471Z" fill="#036672"/>
<path d="M294.408 293.993C296.878 293.993 299.248 294.975 300.995 296.722C302.743 298.469 303.724 300.839 303.724 303.31C303.724 306.492 301.989 309.097 300.161 310.965C299.248 311.889 298.251 312.726 297.184 313.466L296.743 313.766L296.536 313.904L296.146 314.152L295.798 314.365L295.367 314.615C295.075 314.782 294.744 314.87 294.408 314.87C294.071 314.87 293.74 314.782 293.448 314.615L293.017 314.365L292.479 314.033L292.28 313.904L291.856 313.621C290.704 312.842 289.632 311.953 288.654 310.965C286.826 309.096 285.091 306.492 285.091 303.31C285.091 300.839 286.072 298.469 287.82 296.722C289.567 294.975 291.937 293.993 294.408 293.993ZM294.408 300.204C294 300.204 293.596 300.285 293.219 300.441C292.842 300.597 292.5 300.826 292.212 301.114C291.923 301.402 291.694 301.745 291.538 302.121C291.382 302.498 291.302 302.902 291.302 303.31C291.302 303.718 291.382 304.122 291.538 304.498C291.694 304.875 291.923 305.217 292.212 305.506C292.5 305.794 292.842 306.023 293.219 306.179C293.596 306.335 294 306.415 294.408 306.415C295.231 306.415 296.021 306.088 296.603 305.506C297.186 304.923 297.513 304.134 297.513 303.31C297.513 302.486 297.186 301.696 296.603 301.114C296.021 300.531 295.231 300.204 294.408 300.204Z" fill="#036672"/>
<path d="M322.979 298.962C325.45 298.962 327.819 299.943 329.566 301.691C331.314 303.438 332.295 305.808 332.295 308.279C332.295 311.461 330.56 314.065 328.732 315.934C327.819 316.857 326.822 317.694 325.755 318.435L325.314 318.735L325.107 318.873L324.717 319.121L324.369 319.333L323.938 319.584C323.646 319.751 323.315 319.838 322.979 319.838C322.642 319.838 322.311 319.751 322.019 319.584L321.588 319.333L321.05 319.002L320.851 318.873L320.427 318.59C319.276 317.811 318.203 316.921 317.225 315.934C315.397 314.064 313.662 311.461 313.662 308.279C313.662 305.808 314.643 303.438 316.391 301.691C318.138 299.943 320.508 298.962 322.979 298.962ZM322.979 305.173C322.571 305.173 322.167 305.253 321.79 305.409C321.413 305.566 321.071 305.794 320.783 306.083C320.494 306.371 320.265 306.713 320.109 307.09C319.953 307.467 319.873 307.871 319.873 308.279C319.873 308.686 319.953 309.09 320.109 309.467C320.265 309.844 320.494 310.186 320.783 310.475C321.071 310.763 321.413 310.992 321.79 311.148C322.167 311.304 322.571 311.384 322.979 311.384C323.802 311.384 324.592 311.057 325.175 310.475C325.757 309.892 326.084 309.102 326.084 308.279C326.084 307.455 325.757 306.665 325.175 306.083C324.592 305.5 323.802 305.173 322.979 305.173Z" fill="#036672"/>
<path d="M244.718 302.688C247.189 302.688 249.559 303.67 251.306 305.417C253.053 307.164 254.035 309.534 254.035 312.005C254.035 315.187 252.3 317.792 250.472 319.66C249.559 320.584 248.562 321.421 247.495 322.161L247.054 322.462L246.847 322.599L246.456 322.848L246.109 323.06L245.678 323.31C245.386 323.477 245.055 323.565 244.718 323.565C244.382 323.565 244.051 323.477 243.759 323.31L243.328 323.06L242.79 322.729L242.591 322.599L242.167 322.317C241.015 321.538 239.943 320.648 238.965 319.66C237.137 317.791 235.402 315.187 235.402 312.005C235.402 309.534 236.383 307.164 238.13 305.417C239.878 303.67 242.247 302.688 244.718 302.688ZM244.718 308.9C244.31 308.9 243.907 308.98 243.53 309.136C243.153 309.292 242.811 309.521 242.522 309.809C242.234 310.098 242.005 310.44 241.849 310.817C241.693 311.194 241.613 311.597 241.613 312.005C241.613 312.413 241.693 312.817 241.849 313.194C242.005 313.57 242.234 313.913 242.522 314.201C242.811 314.49 243.153 314.718 243.53 314.874C243.907 315.03 244.31 315.111 244.718 315.111C245.542 315.111 246.332 314.784 246.914 314.201C247.497 313.619 247.824 312.829 247.824 312.005C247.824 311.182 247.497 310.392 246.914 309.809C246.332 309.227 245.542 308.9 244.718 308.9Z" fill="#036672"/>
<path d="M259.625 244.304C262.096 244.304 264.466 245.286 266.213 247.033C267.96 248.78 268.942 251.15 268.942 253.621C268.942 256.803 267.207 259.408 265.379 261.276C264.465 262.2 263.469 263.037 262.401 263.777L261.96 264.077L261.753 264.215L261.363 264.463L261.015 264.676L260.585 264.926C260.292 265.093 259.962 265.181 259.625 265.181C259.288 265.181 258.958 265.093 258.665 264.926L258.235 264.676L257.696 264.344L257.498 264.215L257.073 263.932C255.922 263.153 254.85 262.264 253.871 261.276C252.043 259.407 250.308 256.803 250.308 253.621C250.308 251.15 251.29 248.78 253.037 247.033C254.784 245.286 257.154 244.304 259.625 244.304ZM259.625 250.515C259.217 250.515 258.813 250.596 258.437 250.752C258.06 250.908 257.717 251.137 257.429 251.425C257.141 251.713 256.912 252.056 256.756 252.432C256.6 252.809 256.519 253.213 256.519 253.621C256.519 254.029 256.6 254.433 256.756 254.809C256.912 255.186 257.141 255.528 257.429 255.817C257.717 256.105 258.06 256.334 258.437 256.49C258.813 256.646 259.217 256.726 259.625 256.726C260.449 256.726 261.239 256.399 261.821 255.817C262.403 255.234 262.731 254.445 262.731 253.621C262.731 252.797 262.403 252.007 261.821 251.425C261.239 250.843 260.449 250.515 259.625 250.515Z" fill="#036672"/>
<path d="M304.345 243.062C306.816 243.062 309.186 244.043 310.933 245.79C312.68 247.538 313.662 249.907 313.662 252.378C313.662 255.56 311.927 258.165 310.099 260.033C309.185 260.957 308.189 261.794 307.122 262.534L306.681 262.835L306.474 262.972L306.083 263.221L305.736 263.433L305.305 263.684C305.013 263.85 304.682 263.938 304.345 263.938C304.009 263.938 303.678 263.85 303.386 263.684L302.955 263.433L302.417 263.102L302.218 262.972L301.794 262.69C300.642 261.911 299.57 261.021 298.592 260.033C296.764 258.164 295.029 255.56 295.029 252.378C295.029 249.907 296.01 247.538 297.757 245.79C299.505 244.043 301.874 243.062 304.345 243.062ZM304.345 249.273C303.937 249.273 303.534 249.353 303.157 249.509C302.78 249.665 302.438 249.894 302.149 250.182C301.861 250.471 301.632 250.813 301.476 251.19C301.32 251.567 301.24 251.97 301.24 252.378C301.24 252.786 301.32 253.19 301.476 253.567C301.632 253.943 301.861 254.286 302.149 254.574C302.438 254.863 302.78 255.091 303.157 255.247C303.534 255.403 303.937 255.484 304.345 255.484C305.169 255.484 305.959 255.157 306.541 254.574C307.124 253.992 307.451 253.202 307.451 252.378C307.451 251.555 307.124 250.765 306.541 250.182C305.959 249.6 305.169 249.273 304.345 249.273Z" fill="#036672"/>
<path d="M279.501 207.037C281.972 207.037 284.341 208.019 286.089 209.766C287.836 211.513 288.817 213.883 288.817 216.354C288.817 219.536 287.082 222.141 285.254 224.009C284.341 224.932 283.344 225.77 282.277 226.51L281.836 226.81L281.629 226.948L281.239 227.196L280.891 227.409L280.46 227.659C280.168 227.826 279.837 227.914 279.501 227.914C279.164 227.914 278.833 227.826 278.541 227.659L278.111 227.409L277.572 227.077L277.373 226.948L276.949 226.665C275.798 225.886 274.725 224.997 273.747 224.009C271.919 222.139 270.184 219.536 270.184 216.354C270.184 213.883 271.166 211.513 272.913 209.766C274.66 208.019 277.03 207.037 279.501 207.037ZM279.501 213.248C279.093 213.248 278.689 213.329 278.312 213.485C277.936 213.641 277.593 213.869 277.305 214.158C277.016 214.446 276.788 214.789 276.632 215.165C276.476 215.542 276.395 215.946 276.395 216.354C276.395 216.762 276.476 217.165 276.632 217.542C276.788 217.919 277.016 218.261 277.305 218.55C277.593 218.838 277.936 219.067 278.312 219.223C278.689 219.379 279.093 219.459 279.501 219.459C280.324 219.459 281.114 219.132 281.697 218.55C282.279 217.967 282.606 217.177 282.606 216.354C282.606 215.53 282.279 214.74 281.697 214.158C281.114 213.575 280.324 213.248 279.501 213.248Z" fill="#036672"/>
<path d="M322.979 207.037C325.45 207.037 327.819 208.019 329.566 209.766C331.314 211.513 332.295 213.883 332.295 216.354C332.295 219.536 330.56 222.141 328.732 224.009C327.819 224.932 326.822 225.77 325.755 226.51L325.314 226.81L325.107 226.948L324.717 227.196L324.369 227.409L323.938 227.659C323.646 227.826 323.315 227.914 322.979 227.914C322.642 227.914 322.311 227.826 322.019 227.659L321.588 227.409L321.05 227.077L320.851 226.948L320.427 226.665C319.276 225.886 318.203 224.997 317.225 224.009C315.397 222.139 313.662 219.536 313.662 216.354C313.662 213.883 314.643 211.513 316.391 209.766C318.138 208.019 320.508 207.037 322.979 207.037ZM322.979 213.248C322.571 213.248 322.167 213.329 321.79 213.485C321.413 213.641 321.071 213.869 320.783 214.158C320.494 214.446 320.265 214.789 320.109 215.165C319.953 215.542 319.873 215.946 319.873 216.354C319.873 216.762 319.953 217.165 320.109 217.542C320.265 217.919 320.494 218.261 320.783 218.55C321.071 218.838 321.413 219.067 321.79 219.223C322.167 219.379 322.571 219.459 322.979 219.459C323.802 219.459 324.592 219.132 325.175 218.55C325.757 217.967 326.084 217.177 326.084 216.354C326.084 215.53 325.757 214.74 325.175 214.158C324.592 213.575 323.802 213.248 322.979 213.248Z" fill="#036672"/>
<path d="M324.221 161.075C326.692 161.075 329.061 162.056 330.809 163.804C332.556 165.551 333.537 167.92 333.537 170.391C333.537 173.574 331.802 176.178 329.974 178.047C329.061 178.97 328.064 179.807 326.997 180.548L326.556 180.848L326.349 180.986L325.959 181.234L325.611 181.446L325.18 181.697C324.888 181.864 324.557 181.951 324.221 181.951C323.884 181.951 323.553 181.864 323.261 181.697L322.83 181.446L322.292 181.115L322.093 180.986L321.669 180.703C320.518 179.924 319.445 179.034 318.467 178.047C316.639 176.177 314.904 173.574 314.904 170.391C314.904 167.92 315.886 165.551 317.633 163.804C319.38 162.056 321.75 161.075 324.221 161.075ZM324.221 167.286C323.813 167.286 323.409 167.366 323.032 167.522C322.656 167.678 322.313 167.907 322.025 168.195C321.736 168.484 321.508 168.826 321.352 169.203C321.196 169.58 321.115 169.984 321.115 170.391C321.115 170.799 321.196 171.203 321.352 171.58C321.508 171.957 321.736 172.299 322.025 172.587C322.313 172.876 322.656 173.104 323.032 173.261C323.409 173.417 323.813 173.497 324.221 173.497C325.044 173.497 325.834 173.17 326.417 172.587C326.999 172.005 327.326 171.215 327.326 170.391C327.326 169.568 326.999 168.778 326.417 168.195C325.834 167.613 325.044 167.286 324.221 167.286Z" fill="#036672"/>
<path d="M277.016 50.5166C279.487 50.5166 281.857 51.4982 283.604 53.2454C285.351 54.9926 286.333 57.3624 286.333 59.8333C286.333 63.0155 284.598 65.62 282.77 67.4885C281.856 68.412 280.86 69.2492 279.793 69.9895L279.352 70.2897L279.145 70.4274L278.754 70.6759L278.406 70.8881L277.976 71.1386C277.683 71.3054 277.353 71.3932 277.016 71.3932C276.68 71.3932 276.349 71.3054 276.057 71.1386L275.626 70.8881L275.088 70.5568L274.889 70.4274L274.464 70.1448C273.313 69.3658 272.241 68.4762 271.263 67.4885C269.434 65.619 267.699 63.0155 267.699 59.8333C267.699 57.3624 268.681 54.9926 270.428 53.2454C272.175 51.4982 274.545 50.5166 277.016 50.5166ZM277.016 56.7277C276.608 56.7277 276.204 56.8081 275.828 56.9641C275.451 57.1202 275.109 57.349 274.82 57.6373C274.532 57.9257 274.303 58.2681 274.147 58.6448C273.991 59.0216 273.911 59.4255 273.911 59.8333C273.911 60.2411 273.991 60.645 274.147 61.0217C274.303 61.3985 274.532 61.7409 274.82 62.0293C275.109 62.3176 275.451 62.5464 275.828 62.7025C276.204 62.8585 276.608 62.9389 277.016 62.9389C277.84 62.9389 278.63 62.6117 279.212 62.0293C279.795 61.4469 280.122 60.6569 280.122 59.8333C280.122 59.0096 279.795 58.2197 279.212 57.6373C278.63 57.0549 277.84 56.7277 277.016 56.7277Z" fill="#036672"/>
<path d="M216.147 49.2744C218.618 49.2744 220.988 50.256 222.735 52.0032C224.482 53.7504 225.464 56.1202 225.464 58.5911C225.464 61.7733 223.729 64.3778 221.901 66.2463C220.987 67.1698 219.991 68.007 218.924 68.7473L218.483 69.0475L218.276 69.1852L217.885 69.4337L217.538 69.6459L217.107 69.8964C216.815 70.0632 216.484 70.151 216.147 70.151C215.811 70.151 215.48 70.0632 215.188 69.8964L214.757 69.6459L214.219 69.3146L214.02 69.1852L213.596 68.9026C212.444 68.1237 211.372 67.234 210.394 66.2463C208.566 64.3768 206.831 61.7733 206.831 58.5911C206.831 56.1202 207.812 53.7504 209.559 52.0032C211.307 50.256 213.676 49.2744 216.147 49.2744ZM216.147 55.4855C215.739 55.4855 215.336 55.5659 214.959 55.7219C214.582 55.878 214.24 56.1068 213.951 56.3951C213.663 56.6835 213.434 57.0259 213.278 57.4027C213.122 57.7794 213.042 58.1833 213.042 58.5911C213.042 58.9989 213.122 59.4028 213.278 59.7796C213.434 60.1563 213.663 60.4987 213.951 60.7871C214.24 61.0755 214.582 61.3042 214.959 61.4603C215.336 61.6163 215.739 61.6967 216.147 61.6967C216.971 61.6967 217.761 61.3695 218.343 60.7871C218.926 60.2047 219.253 59.4148 219.253 58.5911C219.253 57.7675 218.926 56.9775 218.343 56.3951C217.761 55.8127 216.971 55.4855 216.147 55.4855Z" fill="#036672"/>
<path d="M151.552 2.06982C154.022 2.06982 156.392 3.0514 158.139 4.79862C159.887 6.54584 160.868 8.91558 160.868 11.3865C160.868 14.5687 159.133 17.1732 157.305 19.0417C156.392 19.9652 155.395 20.8024 154.328 21.5427L153.887 21.843L153.68 21.9806L153.29 22.2291L152.942 22.4413L152.511 22.6918C152.219 22.8587 151.888 22.9464 151.552 22.9464C151.215 22.9464 150.884 22.8587 150.592 22.6918L150.161 22.4413L149.623 22.11L149.424 21.9806L149 21.698C147.849 20.9191 146.776 20.0294 145.798 19.0417C143.97 17.1722 142.235 14.5687 142.235 11.3865C142.235 8.91558 143.216 6.54584 144.964 4.79862C146.711 3.0514 149.081 2.06982 151.552 2.06982ZM151.552 8.28095C151.144 8.28095 150.74 8.36128 150.363 8.51735C149.986 8.67342 149.644 8.90217 149.356 9.19055C149.067 9.47893 148.838 9.82129 148.682 10.1981C148.526 10.5749 148.446 10.9787 148.446 11.3865C148.446 11.7943 148.526 12.1982 148.682 12.575C148.838 12.9518 149.067 13.2941 149.356 13.5825C149.644 13.8709 149.986 14.0996 150.363 14.2557C150.74 14.4118 151.144 14.4921 151.552 14.4921C152.375 14.4921 153.165 14.1649 153.748 13.5825C154.33 13.0001 154.657 12.2102 154.657 11.3865C154.657 10.5629 154.33 9.77296 153.748 9.19055C153.165 8.60815 152.375 8.28095 151.552 8.28095Z" fill="#036672"/>
<path d="M367.699 325.049C370.17 325.049 372.539 326.03 374.287 327.778C376.034 329.525 377.015 331.895 377.015 334.366C377.015 337.548 375.28 340.152 373.452 342.021C372.539 342.944 371.542 343.781 370.475 344.522L370.034 344.822L369.827 344.96L369.437 345.208L369.089 345.42L368.658 345.671C368.366 345.838 368.035 345.925 367.699 345.925C367.362 345.925 367.031 345.838 366.739 345.671L366.309 345.42L365.77 345.089L365.571 344.96L365.147 344.677C363.996 343.898 362.923 343.008 361.945 342.021C360.117 340.151 358.382 337.548 358.382 334.366C358.382 331.895 359.364 329.525 361.111 327.778C362.858 326.03 365.228 325.049 367.699 325.049ZM367.699 331.26C367.291 331.26 366.887 331.34 366.51 331.496C366.134 331.652 365.791 331.881 365.503 332.17C365.214 332.458 364.986 332.8 364.83 333.177C364.674 333.554 364.593 333.958 364.593 334.366C364.593 334.773 364.674 335.177 364.83 335.554C364.986 335.931 365.214 336.273 365.503 336.561C365.791 336.85 366.134 337.079 366.51 337.235C366.887 337.391 367.291 337.471 367.699 337.471C368.522 337.471 369.312 337.144 369.895 336.561C370.477 335.979 370.804 335.189 370.804 334.366C370.804 333.542 370.477 332.752 369.895 332.17C369.312 331.587 368.522 331.26 367.699 331.26Z" fill="#036672"/>
<path d="M388.817 153.622C391.288 153.622 393.657 154.603 395.405 156.35C397.152 158.098 398.133 160.467 398.133 162.938C398.133 166.12 396.398 168.725 394.57 170.593C393.657 171.517 392.66 172.354 391.593 173.095L391.152 173.395L390.945 173.532L390.555 173.781L390.207 173.993L389.776 174.244C389.484 174.41 389.153 174.498 388.817 174.498C388.48 174.498 388.149 174.41 387.857 174.244L387.426 173.993L386.888 173.662L386.689 173.532L386.265 173.25C385.114 172.471 384.041 171.581 383.063 170.593C381.235 168.724 379.5 166.12 379.5 162.938C379.5 160.467 380.482 158.098 382.229 156.35C383.976 154.603 386.346 153.622 388.817 153.622ZM388.817 159.833C388.409 159.833 388.005 159.913 387.628 160.069C387.251 160.225 386.909 160.454 386.621 160.742C386.332 161.031 386.104 161.373 385.948 161.75C385.791 162.127 385.711 162.53 385.711 162.938C385.711 163.346 385.791 163.75 385.948 164.127C386.104 164.504 386.332 164.846 386.621 165.134C386.909 165.423 387.251 165.651 387.628 165.807C388.005 165.964 388.409 166.044 388.817 166.044C389.64 166.044 390.43 165.717 391.013 165.134C391.595 164.552 391.922 163.762 391.922 162.938C391.922 162.115 391.595 161.325 391.013 160.742C390.43 160.16 389.64 159.833 388.817 159.833Z" fill="#036672"/>
</svg>
